<?xml version="1.0" standalone="no"?><!DOCTYPE svg PUBLIC "-//W3C//DTD SVG 1.1//EN" "http://www.w3.org/Graphics/SVG/1.1/DTD/svg11.dtd"><svg t="1727011565057" class="icon" viewBox="0 0 1024 1024" version="1.1" xmlns="http://www.w3.org/2000/svg" p-id="7874" xmlns:xlink="http://www.w3.org/1999/xlink" width="200" height="200"><path d="M751.7 493.4h-24.8v73.1h26.5c29.6 0 43.9-13.9 43.9-38.8 0-25.5-16.4-34.3-45.6-34.3z" fill="#FA941C" p-id="7875"></path><path d="M704.1 64.2H136c-4.4 0-8 3.6-8 8v879.3c0 4.4 3.6 8 8 8h752.1c4.4 0 8-3.6 8-8V256l-192-191.8z m-440 638.9c-33 0-68.3-12.2-94.5-36.4l34.3-41.8c18 15.3 41.5 25.8 61.5 25.8 22.4 0 33-8.5 33-22.1 0-14.6-13.9-19.4-35.7-28.6l-32.3-13.6c-26.5-10.5-51.3-32.6-51.3-69.4 0-42.5 38.1-76.5 91.8-76.5 29.2 0 60.2 11.2 82.3 33.3L323 512.1c-16.7-12.6-32.3-19.4-52-19.4-18.7 0-30.3 7.5-30.3 21.1 0 13.9 16 19.4 38.4 28.2l31.6 12.6c31.3 12.6 50 33.7 50 69.4 0 42.1-35.4 79.1-96.6 79.1z m343.1-4.7H547v-104h-83.3v104h-60.9v-253h60.9v96.2H547v-96.2h60.2v253z m149.3-84h-29.6v84H666v-253h88.7c55.8 0 101.7 19.7 101.7 82.3 0 60.2-46.6 86.7-99.9 86.7z m-95.6-317.2V98.7l198.6 198.5H660.9z" fill="#FA941C" p-id="7876"></path></svg>