<?xml version="1.0" standalone="no"?><!DOCTYPE svg PUBLIC "-//W3C//DTD SVG 1.1//EN" "http://www.w3.org/Graphics/SVG/1.1/DTD/svg11.dtd"><svg t="1727011536466" class="icon" viewBox="0 0 1024 1024" version="1.1" xmlns="http://www.w3.org/2000/svg" p-id="4071" xmlns:xlink="http://www.w3.org/1999/xlink" width="200" height="200"><path d="M682.666667 85.333333H277.333333a128 128 0 0 0-128 128v597.333334a128 128 0 0 0 128 128h469.333334a128 128 0 0 0 128-128V298.666667L682.666667 85.333333z" fill="#53B7F4" p-id="4072"></path><path d="M268.117333 467.029333v-43.264h203.882667v43.264h-76.010667V672h-51.861333v-204.970667h-76.010667z m289.941334-43.264V672H505.6V423.765333h52.48zM601.237333 672V423.765333h164.373334v43.264h-111.872v59.157334h100.949333v43.264h-100.949333V672h-52.48z" fill="#29A3D3" p-id="4073"></path><path d="M268.117333 456.362667v-43.264h203.882667v43.264h-76.010667V661.333333h-51.861333v-204.970666h-76.010667z m289.941334-43.264V661.333333H505.6V413.098667h52.48zM601.237333 661.333333V413.098667h164.373334v43.264h-111.872v59.157333h100.949333v43.264h-100.949333V661.333333h-52.48z" fill="#FFFFFF" p-id="4074"></path><path d="M682.666667 85.333333l144 160L874.666667 298.666667h-128a64 64 0 0 1-64-64V85.333333z" fill="#29A3D3" p-id="4075"></path></svg>